<mxfile host="app.diagrams.net" modified="2024-02-26T00:21:35.531Z" agent="Mozilla/5.0 (Windows NT 10.0; Win64; x64) AppleWebKit/537.36 (KHTML, like Gecko) Chrome/122.0.0.0 Safari/537.36 Edg/122.0.0.0" etag="B0Zv_5qkhSFl8P9Hufhc" version="23.1.6" type="device">
  <diagram id="C5RBs43oDa-KdzZeNtuy" name="Page-1">
    <mxGraphModel dx="1945" dy="928" grid="1" gridSize="10" guides="1" tooltips="1" connect="1" arrows="1" fold="1" page="1" pageScale="1" pageWidth="827" pageHeight="1169" math="0" shadow="0">
      <root>
        <mxCell id="WIyWlLk6GJQsqaUBKTNV-0" />
        <mxCell id="WIyWlLk6GJQsqaUBKTNV-1" parent="WIyWlLk6GJQsqaUBKTNV-0" />
        <mxCell id="f6YC6wZ-b5b79aKro-g_-117" value="" style="edgeStyle=orthogonalEdgeStyle;rounded=0;orthogonalLoop=1;jettySize=auto;html=1;" edge="1" parent="WIyWlLk6GJQsqaUBKTNV-1" source="f6YC6wZ-b5b79aKro-g_-6" target="f6YC6wZ-b5b79aKro-g_-116">
          <mxGeometry relative="1" as="geometry" />
        </mxCell>
        <mxCell id="f6YC6wZ-b5b79aKro-g_-6" value="&lt;font style=&quot;font-size: 18px;&quot;&gt;Inicio&lt;/font&gt;" style="ellipse;whiteSpace=wrap;html=1;" vertex="1" parent="WIyWlLk6GJQsqaUBKTNV-1">
          <mxGeometry width="150" height="80" as="geometry" />
        </mxCell>
        <mxCell id="f6YC6wZ-b5b79aKro-g_-119" value="" style="edgeStyle=orthogonalEdgeStyle;rounded=0;orthogonalLoop=1;jettySize=auto;html=1;entryX=-0.075;entryY=0.503;entryDx=0;entryDy=0;entryPerimeter=0;" edge="1" parent="WIyWlLk6GJQsqaUBKTNV-1" source="f6YC6wZ-b5b79aKro-g_-116" target="f6YC6wZ-b5b79aKro-g_-120">
          <mxGeometry relative="1" as="geometry">
            <mxPoint x="572.5" y="40" as="targetPoint" />
            <Array as="points">
              <mxPoint x="597" y="80" />
            </Array>
          </mxGeometry>
        </mxCell>
        <mxCell id="f6YC6wZ-b5b79aKro-g_-116" value="&lt;font style=&quot;font-size: 18px;&quot;&gt;Leer el valor del radio del circulo&lt;/font&gt;" style="rounded=1;whiteSpace=wrap;html=1;" vertex="1" parent="WIyWlLk6GJQsqaUBKTNV-1">
          <mxGeometry x="245" y="45" width="205" height="60" as="geometry" />
        </mxCell>
        <mxCell id="f6YC6wZ-b5b79aKro-g_-122" value="" style="edgeStyle=orthogonalEdgeStyle;rounded=0;orthogonalLoop=1;jettySize=auto;html=1;" edge="1" parent="WIyWlLk6GJQsqaUBKTNV-1" source="f6YC6wZ-b5b79aKro-g_-120" target="f6YC6wZ-b5b79aKro-g_-121">
          <mxGeometry relative="1" as="geometry" />
        </mxCell>
        <mxCell id="f6YC6wZ-b5b79aKro-g_-124" value="" style="edgeStyle=orthogonalEdgeStyle;rounded=0;orthogonalLoop=1;jettySize=auto;html=1;" edge="1" parent="WIyWlLk6GJQsqaUBKTNV-1" source="f6YC6wZ-b5b79aKro-g_-120" target="f6YC6wZ-b5b79aKro-g_-123">
          <mxGeometry relative="1" as="geometry" />
        </mxCell>
        <mxCell id="f6YC6wZ-b5b79aKro-g_-120" value="&lt;font size=&quot;3&quot;&gt;¿Se leyó el valor del radio del circulo?&lt;/font&gt;" style="rhombus;whiteSpace=wrap;html=1;" vertex="1" parent="WIyWlLk6GJQsqaUBKTNV-1">
          <mxGeometry x="610" y="10" width="230" height="140" as="geometry" />
        </mxCell>
        <mxCell id="f6YC6wZ-b5b79aKro-g_-126" value="" style="edgeStyle=orthogonalEdgeStyle;rounded=0;orthogonalLoop=1;jettySize=auto;html=1;" edge="1" parent="WIyWlLk6GJQsqaUBKTNV-1" source="f6YC6wZ-b5b79aKro-g_-121" target="f6YC6wZ-b5b79aKro-g_-125">
          <mxGeometry relative="1" as="geometry" />
        </mxCell>
        <mxCell id="f6YC6wZ-b5b79aKro-g_-121" value="&lt;font style=&quot;font-size: 18px;&quot;&gt;si&lt;/font&gt;" style="rounded=1;whiteSpace=wrap;html=1;" vertex="1" parent="WIyWlLk6GJQsqaUBKTNV-1">
          <mxGeometry x="665" y="270" width="120" height="60" as="geometry" />
        </mxCell>
        <mxCell id="f6YC6wZ-b5b79aKro-g_-132" value="" style="edgeStyle=orthogonalEdgeStyle;rounded=0;orthogonalLoop=1;jettySize=auto;html=1;" edge="1" parent="WIyWlLk6GJQsqaUBKTNV-1" source="f6YC6wZ-b5b79aKro-g_-123" target="f6YC6wZ-b5b79aKro-g_-131">
          <mxGeometry relative="1" as="geometry" />
        </mxCell>
        <mxCell id="f6YC6wZ-b5b79aKro-g_-123" value="&lt;font style=&quot;font-size: 18px;&quot;&gt;no&lt;/font&gt;" style="rounded=1;whiteSpace=wrap;html=1;" vertex="1" parent="WIyWlLk6GJQsqaUBKTNV-1">
          <mxGeometry x="975" y="50" width="175" height="60" as="geometry" />
        </mxCell>
        <mxCell id="f6YC6wZ-b5b79aKro-g_-136" value="" style="edgeStyle=orthogonalEdgeStyle;rounded=0;orthogonalLoop=1;jettySize=auto;html=1;" edge="1" parent="WIyWlLk6GJQsqaUBKTNV-1" source="f6YC6wZ-b5b79aKro-g_-125" target="f6YC6wZ-b5b79aKro-g_-135">
          <mxGeometry relative="1" as="geometry" />
        </mxCell>
        <mxCell id="f6YC6wZ-b5b79aKro-g_-125" value="&lt;font style=&quot;font-size: 18px;&quot;&gt;Definir pi como 3.1416&lt;/font&gt;" style="whiteSpace=wrap;html=1;rounded=1;" vertex="1" parent="WIyWlLk6GJQsqaUBKTNV-1">
          <mxGeometry x="985" y="260" width="285" height="80" as="geometry" />
        </mxCell>
        <mxCell id="f6YC6wZ-b5b79aKro-g_-134" value="" style="edgeStyle=orthogonalEdgeStyle;rounded=0;orthogonalLoop=1;jettySize=auto;html=1;entryX=1;entryY=0.5;entryDx=0;entryDy=0;" edge="1" parent="WIyWlLk6GJQsqaUBKTNV-1" source="f6YC6wZ-b5b79aKro-g_-131" target="f6YC6wZ-b5b79aKro-g_-125">
          <mxGeometry relative="1" as="geometry">
            <mxPoint x="1361" y="290" as="targetPoint" />
            <Array as="points">
              <mxPoint x="1361" y="300" />
            </Array>
          </mxGeometry>
        </mxCell>
        <mxCell id="f6YC6wZ-b5b79aKro-g_-131" value="&lt;font style=&quot;font-size: 18px;&quot;&gt;Leer el valor del radio del circulo&lt;/font&gt;" style="whiteSpace=wrap;html=1;rounded=1;" vertex="1" parent="WIyWlLk6GJQsqaUBKTNV-1">
          <mxGeometry x="1270" y="60" width="182.5" height="60" as="geometry" />
        </mxCell>
        <mxCell id="f6YC6wZ-b5b79aKro-g_-138" value="" style="edgeStyle=orthogonalEdgeStyle;rounded=0;orthogonalLoop=1;jettySize=auto;html=1;" edge="1" parent="WIyWlLk6GJQsqaUBKTNV-1" source="f6YC6wZ-b5b79aKro-g_-135" target="f6YC6wZ-b5b79aKro-g_-137">
          <mxGeometry relative="1" as="geometry" />
        </mxCell>
        <mxCell id="f6YC6wZ-b5b79aKro-g_-135" value="&lt;font style=&quot;font-size: 18px;&quot;&gt;Calcular el diámetro (d) utilizando la formula d = 2 * pi * r.&lt;/font&gt;" style="whiteSpace=wrap;html=1;rounded=1;" vertex="1" parent="WIyWlLk6GJQsqaUBKTNV-1">
          <mxGeometry x="952.5" y="450" width="350" height="60" as="geometry" />
        </mxCell>
        <mxCell id="f6YC6wZ-b5b79aKro-g_-140" value="" style="edgeStyle=orthogonalEdgeStyle;rounded=0;orthogonalLoop=1;jettySize=auto;html=1;" edge="1" parent="WIyWlLk6GJQsqaUBKTNV-1" source="f6YC6wZ-b5b79aKro-g_-137" target="f6YC6wZ-b5b79aKro-g_-139">
          <mxGeometry relative="1" as="geometry" />
        </mxCell>
        <mxCell id="f6YC6wZ-b5b79aKro-g_-137" value="&lt;font style=&quot;font-size: 18px;&quot;&gt;Calcular el perímetro (P) utilizando la formula: P = 2 * pi * r.&lt;/font&gt;" style="whiteSpace=wrap;html=1;rounded=1;" vertex="1" parent="WIyWlLk6GJQsqaUBKTNV-1">
          <mxGeometry x="460" y="450" width="297.5" height="60" as="geometry" />
        </mxCell>
        <mxCell id="f6YC6wZ-b5b79aKro-g_-142" value="" style="edgeStyle=orthogonalEdgeStyle;rounded=0;orthogonalLoop=1;jettySize=auto;html=1;" edge="1" parent="WIyWlLk6GJQsqaUBKTNV-1" source="f6YC6wZ-b5b79aKro-g_-139" target="f6YC6wZ-b5b79aKro-g_-141">
          <mxGeometry relative="1" as="geometry" />
        </mxCell>
        <mxCell id="f6YC6wZ-b5b79aKro-g_-139" value="&lt;font style=&quot;font-size: 18px;&quot;&gt;Calcular el área de (A) utilizando la formula: A = pi * rʌ2.&lt;/font&gt;" style="whiteSpace=wrap;html=1;rounded=1;" vertex="1" parent="WIyWlLk6GJQsqaUBKTNV-1">
          <mxGeometry x="10" y="450" width="281.25" height="60" as="geometry" />
        </mxCell>
        <mxCell id="f6YC6wZ-b5b79aKro-g_-144" value="" style="edgeStyle=orthogonalEdgeStyle;rounded=0;orthogonalLoop=1;jettySize=auto;html=1;" edge="1" parent="WIyWlLk6GJQsqaUBKTNV-1" source="f6YC6wZ-b5b79aKro-g_-141" target="f6YC6wZ-b5b79aKro-g_-143">
          <mxGeometry relative="1" as="geometry" />
        </mxCell>
        <mxCell id="f6YC6wZ-b5b79aKro-g_-141" value="&lt;font style=&quot;font-size: 18px;&quot;&gt;Mostrar los resultados del diámetro, perímetro y área.&lt;/font&gt;" style="whiteSpace=wrap;html=1;rounded=1;" vertex="1" parent="WIyWlLk6GJQsqaUBKTNV-1">
          <mxGeometry x="90.63" y="670" width="329.38" height="60" as="geometry" />
        </mxCell>
        <mxCell id="f6YC6wZ-b5b79aKro-g_-143" value="&lt;font style=&quot;font-size: 18px;&quot;&gt;fin&lt;/font&gt;" style="ellipse;whiteSpace=wrap;html=1;rounded=1;" vertex="1" parent="WIyWlLk6GJQsqaUBKTNV-1">
          <mxGeometry x="624.7" y="660" width="145.3" height="80" as="geometry" />
        </mxCell>
      </root>
    </mxGraphModel>
  </diagram>
</mxfile>
